<svg xmlns="http://www.w3.org/2000/svg" width="512" height="512" viewBox="0 0 512 512"><g><g><path d="m466 15c0-8.284-6.716-15-15-15h-360c-24.81 0-45 20.184-45 45l.041 376.989c.004 33.135 26.865 59.994 60 59.994h314.959c8.284 0 15-6.716 15-15v-75.007h15c8.284 0 15-6.716 15-15z" fill="#fb3e3d"></path><g fill="#d01b00"><path d="m466 15v361.975c0 8.284-6.716 15-15 15h-15v75.006c0 8.286-6.717 15.003-15.003 15.003h-134.997v-481.984h165c8.284 0 15 6.716 15 15z" fill="#d01b00"></path><path d="m136 0v31.997c0 8.282-6.72 15.003-15 15.003s-15-6.721-15-15.003v-31.997z" fill="#d01b00"></path><path d="m121 75.988c-8.284 0-15 6.717-15 15.003v29.999c0 8.286 6.716 15.003 15 15.003s15-6.717 15-15.003v-29.999c0-8.286-6.716-15.003-15-15.003z" fill="#d01b00"></path><path d="m121 165.984c-8.284 0-15 6.717-15 15.003v29.999c0 8.286 6.716 15.003 15 15.003s15-6.717 15-15.003v-29.999c0-8.286-6.716-15.003-15-15.003z" fill="#d01b00"></path><path d="m121 255.98c-8.284 0-15 6.717-15 15.003v29.999c0 8.286 6.716 15.003 15 15.003s15-6.717 15-15.003v-29.999c0-8.285-6.716-15.003-15-15.003z" fill="#d01b00" data-original="#d01b00" style=""></path><path d="m136 360.978v30.997h-30v-30.997c0-8.282 6.72-15.003 15-15.003s15 6.722 15 15.003z" fill="#d01b00"></path></g><path d="m338.388 91.446c-10.426-18.54-30.227-30.563-52.305-30.563-22.077 0-41.878 12.023-52.305 30.563-31.789-4.656-60.195 20.023-60.195 51.955 0 23.743 15.838 43.857 37.5 50.328v62.196c0 8.286 6.716 15.003 15 15.003h120c8.284 0 15-6.717 15-15.003 0-10.662 0-51.719 0-62.196 21.662-6.472 37.5-26.585 37.5-50.328 0-31.846-28.314-56.623-60.195-51.955z" fill="#e6f9fc"></path><path d="m338.39 91.45c-10.43-18.544-30.23-30.567-52.31-30.567v210.046h60c8.29 0 15-6.721 15-15.003 0-10.666 0-51.721 0-62.193 21.67-6.471 37.5-26.586 37.5-50.331 0-31.848-28.31-56.623-60.19-51.952z" fill="#c6eef8"></path><path d="m105.994 391.975h300.006v60.001h-300.006c-16.565 0-29.994-13.432-29.994-30 0-16.569 13.429-30.001 29.994-30.001z" fill="#c6eef8"></path><path d="m286 391.975h120v60.003h-120z" fill="#69dbf9"></path><path d="m256 420.981v75.496c0 12.058-13.565 19.204-23.5 12.363l-36.26-24.935-36.32 25.376c-9.891 6.917-23.59-.151-23.59-12.303v-75.997z" fill="#fff200"></path><path d="m256 420.981v75.496c0 12.063-13.56 19.204-23.5 12.363l-36.26-24.935v-62.924z" fill="#ffd604"></path><path d="m376 313.938h-179.833c-8.284 0-15 6.717-15 15.003s6.716 15.003 15 15.003h179.833c8.284 0 15-6.717 15-15.003s-6.716-15.003-15-15.003z" fill="#fc811c"></path><path d="m391 328.941c0 8.282-6.72 15.003-15 15.003h-89.92v-30.007h89.92c8.28.001 15 6.723 15 15.004z" fill="#fb3e3d"></path></g></g></svg>